# xmcd
#
# Track frame offsets:
#	150
#	16952
#	45595
#	63165
#	81542
#	96552
#	118342
#	136447
#	155977
#	170755
#
# Disc length: 2494
#
# Revision: 1
# Processed by: cddbd v1.5.1PL0 Copyright (c) Steve Scherf et al.
# Submitted via: dBpowerAMP V4.0
# Normalized: r0:TDELIM( - )
#
DISCID=9309bc0a
DTITLE=Various Artist - Soul In The 70's
DYEAR=1900
DGENRE=
TTITLE0=The Ojay's - Sunshine
TTITLE1=MFSB - Touch Me In The Morning
TTITLE2=The Isley Brothers - Do You Wanna Stay Down
TTITLE3=Patti LaBelle - Don't Let Go
TTITLE4=Earth, Wind and Fire - Happy Feelin'
TTITLE5=Harold Melvin and The Blue Notes - It All Depends On You
TTITLE6=Billy Paul - Traces
TTITLE7=The three Degrees - A Woman Needs A Good Man
TTITLE8=The Emotions - Smile
TTITLE9=Deniece Williams - The Boy I Left Behind
EXTD=
EXTT0=
EXTT1=
EXTT2=
EXTT3=
EXTT4=
EXTT5=
EXTT6=
EXTT7=
EXTT8=
EXTT9=
PLAYORDER=
